<?xml version="1.0" encoding="UTF-8"?>
<svg id="Capa_2" data-name="Capa 2" xmlns="http://www.w3.org/2000/svg" viewBox="0 0 81.5 29.8">
  <defs>
    <style>
      .cls-1 {
        fill: #50a8f3;
      }
    </style>
  </defs>
  <g id="Capa_1-2" data-name="Capa 1">
    <g>
      <g>
        <path class="cls-1" d="M31.07,4.3c-.09-.84-.38-1.6-.85-2.31-.48-.7-1.13-1.2-1.91-1.55-.79-.33-1.69-.48-2.68-.44-1.05.04-1.97.26-2.75.66-.78.4-1.41.96-1.87,1.66-.46.71-.73,1.49-.81,2.32-.09.83-.14,2.25-.13,4.25,0,1.14,0,2.27,0,3.41,0,2.05.05,3.48.14,4.31.09.81.38,1.58.86,2.27.47.69,1.12,1.22,1.91,1.57.78.35,1.68.52,2.67.52,1.05,0,1.96-.19,2.75-.56.78-.38,1.41-.9,1.87-1.61.46-.71.74-1.48.83-2.33.08-.84.13-2.29.12-4.33,0-1.3,0-2.61,0-3.91-.01-1.85-.06-3.17-.14-3.93ZM26.4,14.84c0,1.19-.04,1.94-.14,2.25-.09.33-.3.49-.63.49-.32,0-.52-.15-.61-.42-.09-.26-.14-.99-.14-2.16,0-3.13,0-6.26,0-9.38,0-1.03.07-1.66.21-1.88.13-.22.32-.32.57-.33.3,0,.49.11.59.37.1.26.15.86.15,1.8,0,3.09,0,6.17,0,9.26Z"/>
        <path class="cls-1" d="M39.75.17c0,3.06,0,6.12,0,9.17-.2-.67-.4-1.35-.6-2.02-.7-2.38-1.4-4.76-2.11-7.14-1.35.01-2.69.03-4.04.05,0,6.77,0,13.54,0,20.3,1.34,0,2.69,0,4.03,0,0-3.09,0-6.17,0-9.26.84,3.08,1.67,6.17,2.51,9.26,1.41,0,2.82,0,4.23,0,0-6.79,0-13.57,0-20.36-1.35,0-2.69-.01-4.04,0Z"/>
        <path class="cls-1" d="M54.44,9.49c.32-1.02.63-2.04.94-3.06.61-1.99,1.22-3.98,1.83-5.96-1.51-.06-3.02-.1-4.53-.15-.53,1.94-1.07,3.88-1.6,5.83-.18.66-.36,1.33-.54,1.99,0-2.62,0-5.25,0-7.87-1.61-.04-3.22-.06-4.83-.08,0,6.78,0,13.56,0,20.34,1.61,0,3.22,0,4.83,0,0-2.9,0-5.79,0-8.69.65,2.9,1.29,5.8,1.94,8.69,1.66,0,3.33,0,4.99,0-1.01-3.67-2.02-7.36-3.03-11.06Z"/>
        <path class="cls-1" d="M69.11,17.21c-.09.6-.37,1.2-.82,1.83-.45.63-1.04,1.11-1.78,1.44-.74.33-1.6.49-2.6.49-1.1,0-2.08-.2-2.93-.58-.85-.4-1.48-.92-1.91-1.55-.41-.63-.66-1.31-.73-2.02-.08-.71-.11-2.19-.11-4.45,0-3.95,0-7.9,0-11.85,1.61.06,3.21.14,4.82.22,0,4.95,0,9.91-.01,14.86,0,.87.04,1.42.14,1.66.08.25.26.37.53.37.31,0,.51-.14.59-.4.09-.27.14-.89.14-1.87,0-4.85,0-9.7.01-14.55,1.6.09,3.21.18,4.81.28,0,0-.05,15.53-.15,16.12Z"/>
        <path class="cls-1" d="M81.32,4.65c-.13-.56-.37-1.06-.72-1.47-.36-.42-.88-.77-1.59-1.04-.44-.17-1-.31-1.67-.41-.4-.07-.85-.12-1.34-.16-1.61-.13-3.23-.25-4.85-.36.03,6.58.06,13.16.09,19.73,0,0,3.96-.07,4.71,0,0-2.67,0-5.35,0-8.02.46.02.92.03,1.38.05,1.01.02,1.84-.09,2.47-.35.65-.27,1.1-.66,1.34-1.19.24-.54.37-1.38.37-2.57v-1.62c0-1.16-.07-2.02-.18-2.59ZM77.47,8.03c0,.55-.05.94-.15,1.19-.04.08-.07.14-.1.18-.17.21-.48.3-.92.28-.1,0-.22,0-.36-.03,0-1.61,0-3.22,0-4.83.62.04,1.03.16,1.23.38.06.06.12.14.15.23.1.24.15.58.15,1.04,0,.52,0,1.04,0,1.56Z"/>
        <path class="cls-1" d="M19.08.7c-.72,6.65-1.43,13.27-2.15,19.85-.97,0-1.94,0-2.9,0-1.18,0-3.71-1.94-3.71-7.67.45-.01.9-.03,1.35-.04-.37-.93-.73-1.85-1.1-2.76,0-.28,0-.57,0-.85,0-2.48-1.03-3.59-1.03-3.59,0,0-1.03,1.37-1.02,3.67,0,.28,0,.56,0,.84-.36.94-.73,1.88-1.09,2.81.45-.01.9-.03,1.35-.04,0,5.72-2.54,7.65-3.7,7.64-.97,0-1.94,0-2.91,0C1.43,14.34.72,8.16,0,2.05c1.55-.14,3.11-.28,4.66-.41.33,2.06.67,4.12,1,6.2.44-2.12.89-4.24,1.33-6.38,1.69-.13,3.38-.25,5.08-.36.45,2.11.89,4.24,1.34,6.37.33-2.17.66-4.34.99-6.51,1.56-.09,3.12-.18,4.68-.25Z"/>
        <path class="cls-1" d="M9.97,8.1c0,.12-.05.24-.13.33-.11.11-.28.17-.43.13-.18-.05-.31-.24-.31-.42,0-.3.3-.55.59-.45.17.06.28.23.28.41Z"/>
      </g>
      <g>
        <path class="cls-1" d="M1.86,29.72v-4.62h.61v4.62h-.61Z"/>
        <path class="cls-1" d="M7.68,29.72v-4.62h.63l2.43,3.63v-3.63h.59v4.62h-.63l-2.43-3.63v3.63h-.59Z"/>
        <path class="cls-1" d="M19.77,28.1l.61.15c-.13.5-.36.89-.69,1.15s-.74.4-1.22.4-.9-.1-1.21-.3c-.31-.2-.55-.5-.71-.88s-.24-.8-.24-1.24c0-.48.09-.9.28-1.26.18-.36.45-.63.78-.82.34-.19.71-.28,1.12-.28.46,0,.85.12,1.17.35.32.23.53.57.66.99l-.6.14c-.11-.34-.26-.58-.47-.73-.2-.15-.46-.23-.77-.23-.36,0-.65.08-.89.25-.24.17-.41.4-.5.69-.1.29-.14.58-.14.89,0,.39.06.74.17,1.03.12.29.29.51.53.66s.5.22.78.22c.34,0,.63-.1.87-.3s.4-.49.48-.88Z"/>
        <path class="cls-1" d="M28.3,25.1h.61v2.67c0,.46-.05.83-.16,1.11-.11.27-.29.5-.57.67s-.63.26-1.08.26-.79-.07-1.06-.22c-.28-.15-.47-.37-.59-.65-.12-.28-.18-.67-.18-1.16v-2.67h.61v2.67c0,.4.04.7.11.89.08.19.2.34.38.44s.4.15.67.15c.45,0,.77-.1.96-.31.19-.2.29-.6.29-1.18v-2.67Z"/>
        <path class="cls-1" d="M34.04,29.72v-4.62h1.73c.35,0,.64.05.85.14.21.09.38.24.5.43.12.19.18.4.18.61,0,.2-.05.38-.16.56s-.27.31-.49.42c.28.08.49.22.64.42.15.2.23.43.23.7,0,.22-.05.42-.14.6s-.2.33-.34.43c-.13.1-.3.18-.51.23-.2.05-.45.08-.75.08h-1.76ZM34.65,27.04h1c.27,0,.47-.02.58-.05.16-.05.27-.12.35-.23.08-.11.12-.24.12-.4,0-.15-.04-.29-.11-.4-.07-.12-.18-.2-.32-.24s-.37-.06-.7-.06h-.92v1.4ZM34.65,29.17h1.15c.2,0,.34,0,.42-.02.14-.02.26-.07.35-.13s.17-.14.23-.26c.06-.11.09-.24.09-.39,0-.17-.04-.32-.13-.45-.09-.13-.21-.22-.37-.27-.16-.05-.38-.08-.68-.08h-1.07v1.59Z"/>
        <path class="cls-1" d="M41.99,29.72l1.78-4.62h.66l1.89,4.62h-.7l-.54-1.4h-1.93l-.51,1.4h-.65ZM43.33,27.82h1.57l-.48-1.28c-.15-.39-.26-.71-.33-.96-.06.3-.14.59-.25.88l-.51,1.36Z"/>
        <path class="cls-1" d="M50.94,29.72v-4.62h1.59c.36,0,.63.02.82.07.26.06.49.17.68.33.24.21.43.47.55.79.12.32.18.69.18,1.1,0,.35-.04.66-.12.93-.08.27-.19.5-.31.67s-.27.32-.42.42c-.15.1-.34.18-.55.23-.21.05-.46.08-.74.08h-1.67ZM51.55,29.17h.99c.3,0,.54-.03.72-.09s.31-.14.41-.24c.14-.15.26-.34.34-.59.08-.24.12-.54.12-.89,0-.48-.08-.86-.24-1.11-.16-.26-.35-.43-.58-.52-.16-.06-.43-.09-.79-.09h-.97v3.53Z"/>
        <path class="cls-1" d="M59.55,27.47c0-.77.21-1.37.62-1.8.41-.43.94-.65,1.6-.65.43,0,.81.1,1.15.31.34.2.6.49.78.85.18.36.27.78.27,1.24s-.09.89-.28,1.26-.46.65-.8.84c-.35.19-.72.29-1.12.29-.43,0-.82-.1-1.17-.31s-.6-.5-.78-.86c-.18-.36-.26-.75-.26-1.15ZM60.18,27.48c0,.56.15,1,.45,1.32.3.32.68.48,1.13.48s.84-.16,1.14-.49c.3-.32.45-.78.45-1.38,0-.38-.06-.7-.19-.98-.13-.28-.31-.5-.56-.65s-.52-.23-.82-.23c-.43,0-.81.15-1.12.45s-.47.79-.47,1.49Z"/>
        <path class="cls-1" d="M68.89,29.72v-4.62h2.05c.41,0,.72.04.94.12.21.08.39.23.51.44.13.21.19.44.19.7,0,.33-.11.6-.32.83-.21.22-.54.37-.98.43.16.08.28.15.37.23.18.16.35.37.51.61l.8,1.26h-.77l-.61-.96c-.18-.28-.33-.49-.44-.64s-.22-.25-.31-.31c-.09-.06-.18-.1-.28-.12-.07-.01-.18-.02-.34-.02h-.71v2.05h-.61ZM69.51,27.14h1.31c.28,0,.5-.03.66-.09.16-.06.28-.15.36-.28s.12-.27.12-.41c0-.22-.08-.4-.24-.54-.16-.14-.41-.21-.75-.21h-1.46v1.53Z"/>
        <path class="cls-1" d="M77.17,29.72l1.78-4.62h.66l1.89,4.62h-.7l-.54-1.4h-1.93l-.51,1.4h-.65ZM78.5,27.82h1.57l-.48-1.28c-.15-.39-.26-.71-.33-.96-.06.3-.14.59-.25.88l-.51,1.36Z"/>
      </g>
    </g>
  </g>
</svg>