<?xml version="1.0" encoding="UTF-8"?>
<svg id="Capa_2" data-name="Capa 2" xmlns="http://www.w3.org/2000/svg" viewBox="0 0 81.5 20.97">
  <defs>
    <style>
      .cls-1 {
        fill: #1d1d1b;
      }
    </style>
  </defs>
  <g id="Capa_1-2" data-name="Capa 1">
    <g>
      <path class="cls-1" d="M31.07,4.3c-.09-.84-.38-1.6-.85-2.31-.48-.7-1.13-1.2-1.91-1.55-.79-.33-1.69-.48-2.68-.44-1.05.04-1.97.26-2.75.66-.78.4-1.41.96-1.87,1.66-.46.71-.73,1.49-.81,2.32-.09.83-.14,2.25-.13,4.25,0,1.14,0,2.27,0,3.41,0,2.05.05,3.48.14,4.31.09.81.38,1.58.86,2.27.47.69,1.12,1.22,1.91,1.57.78.35,1.68.52,2.67.52,1.05,0,1.96-.19,2.75-.56.78-.38,1.41-.9,1.87-1.61.46-.71.74-1.48.83-2.33.08-.84.13-2.29.12-4.33,0-1.3,0-2.61,0-3.91-.01-1.85-.06-3.17-.14-3.93ZM26.4,14.84c0,1.19-.04,1.94-.14,2.25-.09.33-.3.49-.63.49-.32,0-.52-.15-.61-.42-.09-.26-.14-.99-.14-2.16,0-3.13,0-6.26,0-9.38,0-1.03.07-1.66.21-1.88.13-.22.32-.32.57-.33.3,0,.49.11.59.37.1.26.15.86.15,1.8,0,3.09,0,6.17,0,9.26Z"/>
      <path class="cls-1" d="M39.75.17c0,3.06,0,6.12,0,9.17-.2-.67-.4-1.35-.6-2.02-.7-2.38-1.4-4.76-2.11-7.14-1.35.01-2.69.03-4.04.05,0,6.77,0,13.54,0,20.3,1.34,0,2.69,0,4.03,0,0-3.09,0-6.17,0-9.26.84,3.08,1.67,6.17,2.51,9.26,1.41,0,2.82,0,4.23,0,0-6.79,0-13.57,0-20.36-1.35,0-2.69-.01-4.04,0Z"/>
      <path class="cls-1" d="M54.44,9.49c.32-1.02.63-2.04.94-3.06.61-1.99,1.22-3.98,1.83-5.96-1.51-.06-3.02-.1-4.53-.15-.53,1.94-1.07,3.88-1.6,5.83-.18.66-.36,1.33-.54,1.99,0-2.62,0-5.25,0-7.87-1.61-.04-3.22-.06-4.83-.08,0,6.78,0,13.56,0,20.34,1.61,0,3.22,0,4.83,0,0-2.9,0-5.79,0-8.69.65,2.9,1.29,5.8,1.94,8.69,1.66,0,3.33,0,4.99,0-1.01-3.67-2.02-7.36-3.03-11.06Z"/>
      <path class="cls-1" d="M69.11,17.21c-.09.6-.37,1.2-.82,1.83-.45.63-1.04,1.11-1.78,1.44-.74.33-1.6.49-2.6.49-1.1,0-2.08-.2-2.93-.58-.85-.4-1.48-.92-1.91-1.55-.41-.63-.66-1.31-.73-2.02-.08-.71-.11-2.19-.11-4.45,0-3.95,0-7.9,0-11.85,1.61.06,3.21.14,4.82.22,0,4.95,0,9.91-.01,14.86,0,.87.04,1.42.14,1.66.08.25.26.37.53.37.31,0,.51-.14.59-.4.09-.27.14-.89.14-1.87,0-4.85,0-9.7.01-14.55,1.6.09,3.21.18,4.81.28,0,0-.05,15.53-.15,16.12Z"/>
      <path class="cls-1" d="M81.32,4.65c-.13-.56-.37-1.06-.72-1.47-.36-.42-.88-.77-1.59-1.04-.44-.17-1-.31-1.67-.41-.4-.07-.85-.12-1.34-.16-1.61-.13-3.23-.25-4.85-.36.03,6.58.06,13.16.09,19.73,0,0,3.96-.07,4.71,0,0-2.67,0-5.35,0-8.02.46.02.92.03,1.38.05,1.01.02,1.84-.09,2.47-.35.65-.27,1.1-.66,1.34-1.19.24-.54.37-1.38.37-2.57v-1.62c0-1.16-.07-2.02-.18-2.59ZM77.47,8.03c0,.55-.05.94-.15,1.19-.04.08-.07.14-.1.18-.17.21-.48.3-.92.28-.1,0-.22,0-.36-.03,0-1.61,0-3.22,0-4.83.62.04,1.03.16,1.23.38.06.06.12.14.15.23.1.24.15.58.15,1.04,0,.52,0,1.04,0,1.56Z"/>
      <path class="cls-1" d="M19.08.7c-.72,6.65-1.43,13.27-2.15,19.85-.97,0-1.94,0-2.9,0-1.18,0-3.71-1.94-3.71-7.67.45-.01.9-.03,1.35-.04-.37-.93-.73-1.85-1.1-2.76,0-.28,0-.57,0-.85,0-2.48-1.03-3.59-1.03-3.59,0,0-1.03,1.37-1.02,3.67,0,.28,0,.56,0,.84-.36.94-.73,1.88-1.09,2.81.45-.01.9-.03,1.35-.04,0,5.72-2.54,7.65-3.7,7.64-.97,0-1.94,0-2.91,0C1.43,14.34.72,8.16,0,2.05c1.55-.14,3.11-.28,4.66-.41.33,2.06.67,4.12,1,6.2.44-2.12.89-4.24,1.33-6.38,1.69-.13,3.38-.25,5.08-.36.45,2.11.89,4.24,1.34,6.37.33-2.17.66-4.34.99-6.51,1.56-.09,3.12-.18,4.68-.25Z"/>
      <path class="cls-1" d="M9.97,8.1c0,.12-.05.24-.13.33-.11.11-.28.17-.43.13-.18-.05-.31-.24-.31-.42,0-.3.3-.55.59-.45.17.06.28.23.28.41Z"/>
    </g>
  </g>
</svg>