<?xml version="1.0" encoding="UTF-8"?>
<svg id="Capa_2" data-name="Capa 2" xmlns="http://www.w3.org/2000/svg" viewBox="0 0 28.18 27.75">
  <defs>
    <style>
      .cls-1 {
        fill: #1d1d1b;
      }
    </style>
  </defs>
  <g id="Capa_1-2" data-name="Capa 1">
    <g>
      <path class="cls-1" d="M28.18,1.87l-3.03,25.88h-4.35c-1.76,0-5.56-2.78-5.56-11.02h2.02l-1.64-4.01v-1.22c0-3.56-1.54-5.22-1.54-5.22,0,0-1.54,1.66-1.54,5.22v1.22l-1.64,4.01h2.02c0,8.24-3.81,11.02-5.56,11.02H3.01L0,1.87C2.22,1.26,4.5.8,6.83.5l1.45,9.6S10.08,1.61,10.26.13c1.26-.08,2.54-.13,3.83-.13s2.56.05,3.83.13c.18,1.48,1.97,9.97,1.97,9.97L21.33.5c2.33.31,4.62.77,6.84,1.37Z"/>
      <path class="cls-1" d="M14.72,9.85c0,.39-.41.71-.79.6-.27-.07-.46-.33-.46-.6,0-.17.07-.34.2-.46.31-.29.86-.17,1.01.23.03.07.04.15.04.23Z"/>
    </g>
  </g>
</svg>